<svg width="456" height="446" viewBox="0 0 456 446" fill="none" xmlns="http://www.w3.org/2000/svg">
<path d="M33.045 335.492C14.7351 335.492 2.6157 323.634 2.6157 305.411C2.6157 287.189 14.7351 275.331 33.045 275.331C51.5293 275.331 63.5615 287.189 63.5615 305.411C63.5615 323.634 51.5293 335.492 33.045 335.492ZM33.045 326.424C46.9082 326.424 53.6219 319.972 53.6219 305.411C53.6219 290.85 46.9082 284.311 33.045 284.311C19.1818 284.311 12.5554 290.85 12.5554 305.411C12.5554 319.972 19.1818 326.424 33.045 326.424ZM79.9348 334.62H70.5183V276.203H79.9348V334.62ZM106.703 335.492C94.4963 335.492 88.5673 327.383 88.5673 317.356V291.286H97.8967V314.828C97.8967 322.936 101.646 327.034 110.801 327.034C120.392 327.034 124.838 322.152 124.838 312.735V291.286H134.168V334.62H125.536V321.193H125.013C123.618 328.517 117.863 335.492 106.703 335.492ZM163.212 335.492C149.262 335.492 141.327 329.999 141.327 319.972V319.71H150.744V320.408C150.744 326.075 154.144 327.906 163.212 327.906C171.67 327.906 174.198 326.162 174.198 322.326C174.198 318.751 172.106 317.618 165.915 316.746L154.057 315.177C145.861 314.13 140.892 310.643 140.892 303.406C140.892 295.82 147.78 290.415 161.12 290.415C174.373 290.415 182.394 295.733 182.394 306.022V306.283H173.065V305.76C173.065 300.616 170.449 297.913 160.858 297.913C152.924 297.913 150.134 299.657 150.134 303.755C150.134 307.155 151.877 308.376 158.417 309.248L168.444 310.643C178.732 311.95 183.44 315.438 183.44 322.588C183.44 330.696 175.419 335.492 163.212 335.492ZM212.381 335.492C197.994 335.492 188.316 326.337 188.316 312.997C188.316 299.482 197.994 290.415 212.381 290.415C226.854 290.415 236.532 299.482 236.532 312.997C236.532 326.337 226.854 335.492 212.381 335.492ZM212.381 327.122C222.931 327.122 227.29 322.152 227.29 312.997C227.29 303.755 222.931 298.698 212.381 298.698C201.918 298.698 197.558 303.755 197.558 312.997C197.558 322.152 201.918 327.122 212.381 327.122ZM252.782 334.62H243.366V276.203H252.782V334.62ZM274.232 335.492C265.251 335.492 259.584 331.307 259.584 324.157C259.584 317.443 264.989 313.956 273.534 312.997L293.239 310.904V308.376C293.239 301.226 290.1 298.698 281.817 298.698C273.796 298.698 269.872 301.313 269.872 307.678V308.027H260.543V307.678C260.543 297.826 268.739 290.415 282.515 290.415C296.291 290.415 302.481 297.913 302.481 308.288V334.62H293.849V323.808H293.239C290.972 331.132 284.084 335.492 274.232 335.492ZM269 323.547C269 327.034 271.354 328.691 276.76 328.691C286.613 328.691 293.239 325.029 293.239 316.484L276.237 318.403C271.354 319.013 269 320.146 269 323.547ZM354.473 335.492C336.163 335.492 324.044 323.634 324.044 305.411C324.044 287.189 336.163 275.331 354.473 275.331C372.957 275.331 384.989 287.189 384.989 305.411C384.989 323.634 372.957 335.492 354.473 335.492ZM354.473 326.424C368.336 326.424 375.05 319.972 375.05 305.411C375.05 290.85 368.336 284.311 354.473 284.311C340.61 284.311 333.983 290.85 333.983 305.411C333.983 319.972 340.61 326.424 354.473 326.424ZM401.363 334.62H391.946V276.203H401.363V334.62ZM422.812 335.492C413.832 335.492 408.164 331.307 408.164 324.157C408.164 317.443 413.57 313.956 422.115 312.997L441.82 310.904V308.376C441.82 301.226 438.681 298.698 430.398 298.698C422.376 298.698 418.453 301.313 418.453 307.678V308.027H409.123V307.678C409.123 297.826 417.319 290.415 431.095 290.415C444.871 290.415 451.062 297.913 451.062 308.288V334.62H442.43V323.808H441.82C439.553 331.132 432.665 335.492 422.812 335.492ZM417.581 323.547C417.581 327.034 419.935 328.691 425.341 328.691C435.193 328.691 441.82 325.029 441.82 316.484L424.818 318.403C419.935 319.013 417.581 320.146 417.581 323.547Z" fill="black"/>
<path d="M104.715 420.752C86.4051 420.752 74.2857 408.894 74.2857 390.671C74.2857 372.449 86.4051 360.591 104.715 360.591C123.199 360.591 135.232 372.449 135.232 390.671C135.232 408.894 123.199 420.752 104.715 420.752ZM104.715 411.684C118.578 411.684 125.292 405.232 125.292 390.671C125.292 376.111 118.578 369.571 104.715 369.571C90.8518 369.571 84.2254 376.111 84.2254 390.671C84.2254 405.232 90.8518 411.684 104.715 411.684ZM151.605 419.88H142.188V361.463H151.605V419.88ZM173.054 420.752C164.074 420.752 158.406 416.567 158.406 409.417C158.406 402.704 163.812 399.216 172.357 398.257L192.062 396.164V393.636C192.062 386.486 188.923 383.958 180.64 383.958C172.618 383.958 168.695 386.573 168.695 392.938V393.287H159.365V392.938C159.365 383.086 167.561 375.675 181.337 375.675C195.113 375.675 201.304 383.173 201.304 393.549V419.88H192.672V409.068H192.062C189.795 416.392 182.907 420.752 173.054 420.752ZM167.823 408.807C167.823 412.294 170.177 413.951 175.583 413.951C185.435 413.951 192.062 410.289 192.062 401.744L175.06 403.663C170.177 404.273 167.823 405.406 167.823 408.807ZM228.804 420.752C215.115 420.752 207.53 411.597 207.53 398.257C207.53 384.742 215.028 375.675 228.194 375.675C238.482 375.675 244.324 380.993 246.068 388.317H246.591V361.463H256.007V419.88H247.376V407.412H246.765C244.934 416.044 238.569 420.752 228.804 420.752ZM217.033 398.257C217.033 408.632 222.352 412.12 231.681 412.12C240.924 412.12 246.591 407.761 246.591 398.693V397.995C246.591 388.753 241.185 384.219 231.507 384.219C222.439 384.219 217.033 387.794 217.033 398.257ZM286.512 420.752C272.3 420.752 262.97 412.73 262.97 398.257C262.97 384.742 272.212 375.675 286.337 375.675C299.765 375.675 308.919 383.086 308.919 396.252C308.919 397.821 308.832 399.042 308.571 400.349H271.777C272.125 408.72 276.223 413.166 286.25 413.166C295.318 413.166 299.067 410.202 299.067 405.058V404.36H308.484V405.145C308.484 414.387 299.416 420.752 286.512 420.752ZM286.163 383.086C276.572 383.086 272.387 387.358 271.864 395.118H300.026V394.944C300.026 386.922 295.405 383.086 286.163 383.086ZM325.389 419.88H315.972V376.547H324.604V389.974H325.214C326.522 382.65 332.277 375.675 343.263 375.675C355.295 375.675 361.224 383.783 361.224 393.81V419.88H351.807V396.339C351.807 388.23 348.145 384.132 339.165 384.132C329.661 384.132 325.389 389.015 325.389 398.431V419.88ZM379.031 371.49H369.615V361.463H379.031V371.49ZM379.031 419.88H369.615V376.547H379.031V419.88Z" fill="black"/>
<path d="M214.43 0C271.23 0 313.53 49.8 313.53 117.3C313.53 202.1 258.93 242.4 214.43 242.4C151.63 242.4 113.43 184.3 113.43 125.6C113.43 40.3 171.23 0 214.43 0ZM208.93 17.8C181.13 17.8 156.13 48.7 156.13 109.4C156.13 175.9 181.63 224.1 218.93 224.1C247.13 224.1 270.73 200.5 270.73 128.8C270.83 67.5 249.03 17.8 208.93 17.8Z" fill="black"/>
<path d="M396.13 34.4001C365.63 3.90012 296.23 -8.49988 235.93 51.9001C229.93 57.9001 224.53 64.4001 219.73 71.4001C230.83 87.8001 237.43 104.4 240.33 120.2C248.73 104 261.33 87.0001 277.63 70.7001C320.63 27.7001 360.13 23.6001 379.73 43.2001C408.03 71.5001 388.33 122.1 344.93 165.4C294.23 216.1 260.83 216.1 240.93 196.1C237.23 192.4 234.23 188 232.23 183.2C229.03 189.6 225.03 195.6 220.33 201C221.73 202.6 223.23 204.2 224.83 205.8C256.33 237.3 323.43 247.3 383.33 187.3C431.03 139.6 436.33 74.6001 396.13 34.4001Z" fill="black"/>
<path d="M203.33 185.9C217.33 169.9 219.03 146 194.83 112.4C188.53 137.3 190.43 163.3 203.33 185.9Z" fill="black"/>
<path d="M226.03 183.2C234.83 165.7 238.53 143.7 234.23 120.1C221.93 144 218.73 166.3 226.03 183.2Z" fill="black"/>
<path d="M195.03 188.4C168.63 214.8 116.63 198.7 69.53 151.7C26.53 108.7 22.43 69.2 42.03 49.6C70.33 21.3 120.93 41 164.23 84.4C173.13 93.1 181.33 102.6 188.73 112.6C192.53 97.9 198.93 84 207.53 71.5C201.33 62.4 194.23 53.9 186.33 46.1C138.53 -1.69997 73.43 -6.89999 33.33 33.3C2.82999 63.8 -9.57001 133.2 50.83 193.6C92.33 235.1 160.43 249.2 204.83 204.8C205.93 203.7 207.03 202.5 208.13 201.3C204.03 196.6 200.43 191.6 197.33 186.2C196.63 186.8 195.83 187.6 195.03 188.4Z" fill="black"/>
<path d="M234.23 120.1C231.33 104.3 224.73 87.8 213.63 71.3C205.03 83.8 198.63 97.7001 194.83 112.4C219.03 145.9 217.33 169.9 203.33 185.9C206.43 191.3 210.03 196.3 214.13 201C218.83 195.6 222.83 189.6 226.03 183.2C218.73 166.3 221.93 144 234.23 120.1Z" fill="black"/>
</svg>
